<svg width="143" height="33" viewBox="0 0 143 33" fill="none" xmlns="http://www.w3.org/2000/svg">
<path d="M94.8408 14.9684L94.9276 13.4811C95.1017 13.574 95.3623 13.5739 95.6231 13.5739C96.8402 13.5739 96.927 11.6219 96.927 6.04401H102.665V14.9684H100.926V7.53149H98.4921C98.4921 12.3657 98.3182 15.0614 96.058 15.0614C95.6231 15.1542 95.1887 15.0614 94.8408 14.9684ZM104.664 6.13707H106.316V9.39071C106.316 10.3203 106.229 11.9937 106.229 12.8302L109.793 6.13681H111.619V15.0614H109.967V11.8078C109.967 10.8782 110.054 9.20484 110.054 8.36829L106.49 15.0614H104.664V6.13707H104.664ZM113.009 14.8753L113.183 13.295C113.791 13.6668 114.574 13.7598 115.269 13.7598C116.052 13.7598 117.008 13.5739 117.008 12.4582C117.008 11.2497 115.791 11.1566 115.008 11.1566C114.835 11.1566 114.661 11.1566 114.4 11.1566V9.76218C114.574 9.76218 114.748 9.76218 114.835 9.76218C115.617 9.76218 116.921 9.57631 116.921 8.46057C116.921 7.53096 116.051 7.34509 115.356 7.34509C114.748 7.34509 113.878 7.53096 113.357 7.71683L113.183 6.32242C113.878 6.13655 114.835 5.95068 115.617 5.95068C117.269 5.95068 118.573 6.60135 118.573 8.2747C118.573 9.20431 117.964 9.94806 117.008 10.2267C118.051 10.4126 118.746 11.3425 118.746 12.3649C118.746 14.3172 117.356 15.0606 115.443 15.0606C114.574 15.2473 113.705 15.0614 113.009 14.8753ZM120.398 6.13707H122.05V9.39071C122.05 10.3203 121.963 11.9937 121.963 12.8302L125.527 6.13681H127.353V15.0614H125.701V11.8078C125.701 10.8782 125.788 9.20484 125.788 8.36829L122.224 15.0614H120.398V6.13707ZM129.439 6.13707H131.178V9.66964H134.481V6.13707H136.22V15.0614H134.481V11.1569H131.178V15.0614H129.439V6.13707H129.439ZM138.132 6.13707H143V7.62455H139.784V15.0614H138.045V6.13707H138.132ZM75.4553 28.4477H79.1933C80.5843 28.4477 81.4536 28.076 82.062 27.2392C82.3226 26.8674 82.7575 26.1237 82.7575 24.7293C82.7575 23.3348 82.3229 22.405 81.4536 21.6615C80.9319 21.2898 80.2364 21.0108 79.1063 21.0108H75.3683V28.4477H75.4553ZM70.5006 32.9101V6.13707H86.8434L85.4527 10.5992H75.4555V16.5486H79.5414C82.7577 16.5486 84.4966 17.3854 85.6267 18.4079C86.496 19.2447 88.0605 21.1036 88.0605 24.7295C88.0605 28.3549 86.496 30.3072 85.105 31.3299C83.5403 32.4453 81.8887 32.8171 78.5851 32.8171H70.5009V32.9101H70.5006ZM56.07 32.9101V10.5992H48.8546V6.13707H69.0224L67.6316 10.5992H61.199V32.9101H56.07ZM35.9022 16.8276H38.6839C39.5534 16.8276 39.9878 16.8276 40.4225 16.7348C41.5526 16.363 42.3349 15.2473 42.3349 13.7601C42.3349 11.9939 41.5526 11.1571 40.4225 10.7854C39.9878 10.5995 39.5532 10.5065 38.5969 10.5065H35.989V16.8278H35.9022V16.8276ZM35.9892 21.4759V28.5408H39.4664C40.5097 28.5408 41.4661 28.448 42.1613 27.797C42.8565 27.1461 43.1174 26.2167 43.1174 25.1013C43.1174 24.2647 42.8568 23.4282 42.5089 22.7772C41.8134 21.8474 40.8574 21.5687 39.2926 21.5687H35.9892V21.4759ZM43.9869 18.6871C44.943 19.1516 45.8125 19.8025 46.334 20.1743C47.812 21.4759 48.4204 23.149 48.4204 25.3802C48.4204 29.0056 46.5948 31.7016 43.639 32.5381C42.7698 32.8171 41.8134 32.9101 39.9878 32.9101H30.9473V6.13707H38.945C40.5965 6.13707 41.7267 6.23014 42.683 6.50881C45.5514 7.34562 47.4641 9.48351 47.4641 12.8302C47.4641 14.5964 46.8556 16.1769 45.8996 17.1996C45.5514 17.6641 44.943 18.222 43.9869 18.6871Z" fill="white"/>
<path d="M25.818 4.09164H4.60706L6.17184 0.00146484H27.3827L25.818 4.09164ZM25.0357 6.13699H3.82479L2.26002 10.2272H23.4712L25.0357 6.13699ZM22.7754 12.1795H1.56453L0 16.2696H21.2109L22.7754 12.1795Z" fill="#08267F"/>
</svg>
